# xmcd
#
# Track frame offsets: 
#        150
#        13725
#        28350
#        43275
#        57000
#        71850
#        87525
#        100800
#        113625
#        127800
#        141675
#        155475
#        165225
#        178762
#        193350
#        206775
#
# Disc length: 2961 seconds
#
# Revision: 4
# Processed by: cddbd v1.5.2PL0 Copyright (c) Steve Scherf et al.
# Submitted via: ExactAudioCopy v1.0b2
#
DISCID=f10b8f10
DTITLE=Billie Holiday - 16 Most Requested (1993)
DYEAR=1993
DGENRE=Jazz
TTITLE0=Miss Brown To You
TTITLE1=If You Were Mine
TTITLE2=These Foolish Things
TTITLE3=The Way You Look Tonight
TTITLE4=Pennies From Heaven
TTITLE5=I Can't Give You Anything But Love
TTITLE6=I've Got My Love To Keep Me Warm
TTITLE7=Why Was I Born?
TTITLE8=Carelessly
TTITLE9=Easy Living
TTITLE10=My Man
TTITLE11=I'm Gonna Lock My Heart And Throw Away The Key
TTITLE12=Body And Soul
TTITLE13=Gloomy Sunday
TTITLE14=God Bless The Child
TTITLE15=I'm A Fool To Want You
EXTD=YEAR: 1993
EXTT0=
EXTT1=
EXTT2=
EXTT3=
EXTT4=
EXTT5=
EXTT6=
EXTT7=
EXTT8=
EXTT9=
EXTT10=
EXTT11=
EXTT12=
EXTT13=
EXTT14=
EXTT15=
PLAYORDER=
